<svg xmlns="http://www.w3.org/2000/svg" width="153" height="61" viewBox="0 0 153 61" fill="none">
<path d="M136.9 28.9L137.3 12.3C137.3 11.3 136.5 10.5 135.5 10.4C134.5 10.4 133.7 11.2 133.7 12.2V13.8L78 3.79999V1.70002C77.9 0.800018 77.1 0.100018 76.2 0.200018C75.4 0.300018 74.7 0.900018 74.7 1.70002V3.79999L19 13.9V12.3C19 11.3 18.2 10.5 17.2 10.5C16.2 10.5 15.4 11.4 15.4 12.4L15.8 29L2.19998 32L0.299988 32.4L2.09999 32.9L76.1 54.7L76.3 54.8L76.5 54.7L150.5 32.9L152.3 32.4L150.4 32L136.9 28.9ZM135.4 13.2C135.4 12.9 135.5 12.7 135.5 12.6C135.5 12.7 135.5 12.9 135.4 13.2C135.5 13.8 135.5 14.5 135.6 15.5C135.6 16 135.6 16.5 135.6 17C135.6 17.5 135.6 18.1 135.6 18.7C135.6 19.3 135.6 19.9 135.6 20.5C135.6 21.1 135.6 21.7 135.6 22.4L135.5 24.3C135.5 24.9 135.4 25.5 135.4 26.1C135.4 26.7 135.3 27.3 135.3 27.8C135.3 28.3 135.2 28.8 135.2 29.3C135.1 30.2 135.1 31 135 31.6C134.9 32.2 134.9 32.5 134.9 32.5C134.9 32.5 134.9 32.2 134.8 31.6C134.7 31 134.7 30.3 134.7 29.3C134.7 28.8 134.7 28.3 134.7 27.8C134.7 27.3 134.7 26.7 134.7 26.1C134.7 25.5 134.7 24.9 134.7 24.3V22.4C134.7 21.8 134.7 21.1 134.8 20.5C134.9 19.9 134.8 19.3 134.9 18.7C135 18.1 135 17.6 135 17C135 16.4 135.1 16 135.1 15.5C135.3 14.5 135.3 13.7 135.4 13.2ZM76.6 40.7C76.6 41.4 76.6 42 76.5 42.6C76.4 43.2 76.4 43.8 76.4 44.3C76.3 45.4 76.3 46.3 76.2 46.9C76.1 47.5 76.1 47.9 76.1 47.9L76 46.9C76 46.3 75.9 45.4 75.9 44.3C75.9 43.8 75.8 43.2 75.8 42.6C75.8 42 75.8 41.3 75.7 40.7C75.6 40.1 75.7 39.3 75.7 38.6C75.7 37.9 75.7 37.2 75.7 36.5C75.7 35.8 75.7 35.1 75.7 34.4C75.7 33.7 75.7 33 75.7 32.3C75.7 31.6 75.7 31 75.8 30.4C75.9 29.8 75.8 29.2 75.9 28.7C75.9 27.6 76 26.7 76 26.1C76 25.8 76 25.5 76.1 25.4V25V25.3C76.1 25.5 76.1 25.7 76.2 26C76.2 26.6 76.3 27.5 76.4 28.6C76.4 29.1 76.4 29.7 76.5 30.3C76.6 30.9 76.5 31.6 76.6 32.2C76.7 32.8 76.6 33.6 76.6 34.3C76.6 35 76.6 35.7 76.6 36.4C76.6 37.1 76.6 37.8 76.6 38.5C76.6 39.2 76.7 40 76.6 40.7ZM114 23.9L105.4 22L112.2 20.5L120.5 22.3L114 23.9ZM123.3 22.8L132.5 24.7L125.8 26.4L116.7 24.4L123.3 22.8ZM112.1 24.4L110.3 24.9L101.6 22.9L103.4 22.5L112.1 24.4ZM102.6 26.7L78.2 32.7V28L93.6 24.6L102.6 26.7ZM78.2 26.8V25C78.1 23.9 77.2 23.1 76.1 23.2C75.1 23.3 74.4 24 74.3 25V26.8L61.6 24L76.3 20.5L91 24L78.2 26.8ZM74.4 28.1V32.8L50 26.8L58.9 24.7L74.4 28.1ZM42.4 24.9L40.5 24.4L49.2 22.5L51 22.9L42.4 24.9ZM38.6 23.9L32 22.3L40.3 20.5L47.1 22L38.6 23.9ZM35.9 24.5L26.8 26.5L20.1 24.8L29.3 22.9L35.9 24.5ZM37.9 25L39.8 25.5L30.7 27.6L28.8 27.1L37.9 25ZM47.4 27.4L74.4 34.1V38.7L38.4 29.5L47.4 27.4ZM78.2 34L105.1 27.3L114.1 29.4L78.2 38.6V34ZM112.9 25.4L114.8 24.9L123.9 26.9L122 27.4L112.9 25.4ZM126.5 27.6L133.3 29.1V30.1L124.6 28.1L126.5 27.6ZM128.5 27.1L133.4 25.9L133.3 28.2L128.5 27.1ZM126.1 22.2L133.5 20.4L133.4 23.8L126.1 22.2ZM131.6 19.5L123.3 21.5L115.2 19.8L123.7 17.9L131.6 19.5ZM126.6 17.3L133.6 15.8L133.5 18.7L126.6 17.3ZM112.3 19.3L78 12V9.10001L120.7 17.4L112.3 19.3ZM109.4 19.9L102.6 21.4L78 16V13.3L109.4 19.9ZM100.6 21.9L98.8 22.3L77.9 17.6V16.9L100.6 21.9ZM53.8 22.3L52 21.9L74.6 16.9V17.6L53.8 22.3ZM49.9 21.4L43.1 19.9L74.6 13.3V16.1L49.9 21.4ZM40.3 19.3L32 17.4L74.7 9.10001V12L40.3 19.3ZM37.4 19.9L29.3 21.6L21 19.6L29 18.1L37.4 19.9ZM19.1 18.7L19 15.8L26 17.3L19.1 18.7ZM26.5 22.2L19.1 23.8L19 20.4L26.5 22.2ZM24.1 27.1L19.3 28.1L19.2 25.8L24.1 27.1ZM26.1 27.6L28.1 28.1L19.4 30.1V29.1L26.1 27.6ZM35.9 30.1L74.4 39.9V44.5L25.8 32.5L35.9 30.1ZM78.2 40L116.7 30.1L126.8 32.5L78.2 44.5V40ZM132.4 14.8L123.7 16.7L78 7.79999V5.00001L132.4 14.8ZM76.2 2.4L76.3 1.70002C76.3 1.70002 76.3 2 76.4 2.4C76.5 2.8 76.5 3.5 76.6 4.4C76.6 4.8 76.6 5.20002 76.7 5.70002C76.8 6.20002 76.7 6.70002 76.8 7.20002C76.9 7.70002 76.8 8.19999 76.8 8.79999C76.8 9.39999 76.8 9.9 76.8 10.4C76.8 10.9 76.8 11.5 76.8 12C76.8 12.5 76.8 13 76.8 13.5C76.8 14 76.8 14.5 76.7 15C76.6 15.5 76.6 15.9 76.6 16.3C76.5 17.1 76.5 17.8 76.4 18.3C76.3 18.8 76.3 19 76.3 19L76.2 18.3C76.2 17.8 76.1 17.2 76.1 16.3C76.1 15.9 76 15.5 76 15C76 14.5 76 14 75.9 13.5C75.8 13 75.9 12.5 75.9 12C75.9 11.5 75.9 10.9 75.9 10.4C75.9 9.9 75.9 9.29999 75.9 8.79999C75.9 8.29999 75.9 7.70002 75.9 7.20002C75.9 6.70002 75.9 6.20002 76 5.70002C76.1 5.20002 76 4.8 76.1 4.4C76.1 3.5 76.2 2.8 76.2 2.4ZM74.6 7.9L28.9 16.8L20.2 14.9L74.6 5.00001V7.9ZM17.2 27.8C17.2 27.3 17.1 26.7 17.1 26.1C17.1 25.5 17 24.9 17 24.3L16.9 22.4C16.9 21.8 16.9 21.1 16.9 20.5C16.9 19.9 16.9 19.3 16.9 18.7C16.9 18.1 16.9 17.5 16.9 17C16.9 16.5 16.9 16 16.9 15.5C16.9 14.5 17 13.8 17 13.2C17 12.9 17 12.7 17 12.6C17 12.7 17 13 17.1 13.2C17.2 13.7 17.2 14.5 17.3 15.5C17.3 16 17.4 16.5 17.4 17C17.4 17.5 17.5 18.1 17.5 18.7C17.5 19.3 17.6 19.9 17.6 20.5C17.6 21.1 17.6 21.7 17.7 22.4V24.3C17.7 24.9 17.7 25.5 17.7 26.1C17.7 26.7 17.7 27.3 17.7 27.8C17.7 28.3 17.7 28.8 17.7 29.3C17.7 30.3 17.6 31 17.6 31.6C17.6 32.2 17.5 32.5 17.5 32.5C17.5 32.5 17.5 32.2 17.4 31.6C17.3 31 17.3 30.3 17.2 29.3C17.3 28.8 17.2 28.4 17.2 27.8ZM76.3 53.2L4.19998 32.5L15.7 30V31L9.69998 32.4L17.1 34.4L75.6 50.7L76.3 50.9L77 50.7L135.5 34.4L142.9 32.4L136.9 31V30L148.5 32.6L76.3 53.2Z" fill="#6E3233"/>
<path d="M68.7 6.2C71.9 7.2 74.9 8.59998 77.8 10.3L83 6.89998C86 6.29998 89 6.29998 92 6.89998C96.4 7.99998 107 10.5 107.8 17.9C108.6 25.3 105.6 34.5 104.6 35.6C103.6 36.7 96.7 46.4 95.6 47.8C94.5 49.2 91.1 56.7 91.1 56.7C91.1 56.7 90.5 61.2 85.4 59.5C80.3 57.8 74.6 55.7 74.6 55.7L63.5 58.7C61.4 58.9 59.4 57.6 58.7 55.6C57.5 52 56.8 48.9 53.9 44.5C51 40.1 46.3 30.1 46.1 24.2C45.9 18.3 46 9.79998 55.7 7.39998C65.4 4.99998 68.7 6.2 68.7 6.2Z" fill="white"/>
<path d="M58.5 7.89999L57.3 8.10001C56.9 8.20001 56.4 8.3 55.9 8.5L55.2 8.70001C55 8.80001 54.7 8.9 54.4 9C53.9 9.2 53.4 9.50001 52.9 9.70001C52.4 10 51.9 10.3 51.5 10.7C51 11.1 50.6 11.5 50.2 11.9C49.8 12.3 49.5 12.8 49.2 13.3C48.9 13.8 48.7 14.2 48.5 14.7C48.2 15.5 47.9 16.4 47.8 17.2C47.7 17.6 47.7 17.9 47.7 18.1C47.7 18.3 47.7 18.6 47.6 18.7C47.6 18.6 47.6 18.4 47.7 18.1C47.8 17.4 48 16.8 48.2 16.1C48.3 15.7 48.5 15.2 48.7 14.8C48.9 14.3 49.2 13.9 49.4 13.4C49.7 12.9 50 12.5 50.4 12.1C50.8 11.7 51.2 11.3 51.6 10.9C52 10.5 52.5 10.2 53 9.89999C53.5 9.59999 54 9.40001 54.5 9.10001L55.9 8.5C56.4 8.4 56.8 8.20001 57.2 8.10001L58.4 7.89999L59.3 7.70001L58.5 7.89999Z" fill="#6E3233"/>
<path d="M54.8 21.1L55.8 21.3C56.5 21.4 57.2 21.6 57.8 21.7C59 22 60.1 22.4 61.2 22.9C61.6 23.1 62 23.4 62.4 23.6C62.7 23.8 63 24.1 63.2 24.3C63.4 24.5 63.5 24.7 63.6 24.9L63.7 25.1C63.7 25 63.6 24.9 63.6 24.9C63.5 24.7 63.4 24.5 63.2 24.3C63 24 62.7 23.7 62.4 23.4C62 23.1 61.6 22.8 61.2 22.5C61 22.4 60.7 22.2 60.4 22.1C60.1 22 59.9 21.9 59.6 21.7C59 21.5 58.4 21.3 57.7 21.1C57.1 20.9 56.4 20.8 55.7 20.7C55.3 20.6 55 20.6 54.6 20.6C54.2 20.6 53.9 20.5 53.5 20.5C52.8 20.5 52 20.6 51.3 20.9C50.6 21.2 50 21.6 49.6 22.1C49.2 22.6 48.8 23.2 48.6 23.8C48.4 24.3 48.3 24.9 48.2 25.5C48.1 26 48.1 26.5 48.1 27C48.1 27.4 48.1 27.8 48.1 28.1C48.1 28.4 48.2 28.8 48.2 29.1C48.2 29.1 48.2 28.7 48.2 28.1C48.2 27.2 48.3 26.4 48.4 25.6C48.5 25 48.7 24.5 48.9 24C49.1 23.4 49.5 22.9 49.9 22.4C50.4 21.9 50.9 21.6 51.5 21.3C52.1 21.1 52.8 21 53.5 21C54.1 21 54.4 21 54.8 21.1Z" fill="#6E3233"/>
<path d="M95.3 6.79999C92.4 6.09999 89.3 5.60001 86.3 5.60001C80.1 5.60001 78.4 8.10001 77.9 9.60001C77.8 9.80001 77.8 9.99999 77.7 10.3C75.1 6.99999 70.4 5.10001 64.2 5.10001C62.7 5.10001 61.3 5.19999 59.8 5.39999C57.5 5.59999 55.2 6.20001 53 7.20001C52.7 7.30001 52.4 7.50001 52.2 7.60001C50.2 8.60001 48.6 10.1 47.3 11.9C44.3 16.4 44.2 22.8 46.8 32.3C48.1 36.6 50 40.6 52.6 44.2C54.6 47.3 56.6 50.3 57.6 54.6C58.2 57 59.2 59.5 62.3 59.5C63.4 59.4 64.4 59.3 65.4 59L65.9 58.9C68.8 58.4 71.7 57.6 74.5 56.6C77.2 57.9 79.9 58.9 82.8 59.8L83.3 60C84.5 60.5 85.8 60.8 87.1 60.9C89.9 60.9 91.1 58.6 91.9 56.3C93.4 51.9 95.8 49.1 98.2 46.1C101.3 42.7 103.7 38.7 105.5 34.5C107 31.1 108 27.5 108.6 23.9C109.2 20.8 108.8 17.6 107.4 14.7C105.6 10.9 101.6 8.39999 95.3 6.79999ZM62.4 57.8C60.9 57.8 60.1 57 59.4 54.2C57.2 45 51.4 41.7 48.6 31.8C48.3 30.7 48 29.7 47.8 28.6C47.8 28.3 47.8 27.9 47.8 27.5C47.8 26.8 47.9 26 48 25.3C48.1 24.4 48.4 23.5 48.8 22.7C49.2 21.8 49.9 21 50.8 20.5C51.3 20.2 51.8 20.1 52.3 20C52.9 19.9 53.5 19.9 54.1 20C55.4 20.2 56.8 20.4 58.1 20.7C59.4 21 60.7 21.5 62 22.2C62.6 22.5 63.1 22.9 63.6 23.3C64.1 23.7 64.5 24.2 64.8 24.8C65.1 25.3 65.2 25.9 65.2 26.5C65.2 27 65.1 27.4 64.9 27.8L64.7 28C64.5 28.3 64.2 28.6 64 28.8C63.8 29 63.7 29.1 63.5 29.3C63.3 29.5 63.1 29.7 62.9 29.8C62.7 30 62.4 30.2 62.2 30.3C61.9 30.5 61.7 30.6 61.4 30.8C61.1 30.9 60.8 31.1 60.6 31.2C60.5 31.3 60.3 31.3 60.2 31.3L59.4 31.5H56.6C56.7 31.6 56.9 31.7 57 31.7C57.1 31.8 57.3 31.8 57.5 31.9C57.6 31.9 57.7 32 57.8 32C57.9 32 58 32.1 58.2 32.1L58.6 32.2H60.3H60.2C60.1 32.2 60 32.3 59.9 32.3C59 32.6 58.1 32.6 57.3 32.3C56.6 32.1 55.9 31.9 55.2 31.5C54.8 31.3 54.3 31 53.9 30.8C53.6 30.6 53.5 30.5 53.5 30.5C53.6 30.6 53.7 30.8 53.8 30.9C54.1 31.3 54.5 31.6 54.9 31.9C55.5 32.4 56.2 32.8 57 33.1C57.3 33.2 57.7 33.3 58 33.4C58 33.5 58 33.5 58 33.6C58.1 34.2 58.1 34.8 58.1 35.4C58.1 35.7 58.1 36 58.1 36.4C58.1 36.8 58.1 36.7 58.1 36.8C58.1 36.9 58.1 37.1 58.1 37.2L58 37.5V38L58.2 37.6L58.4 37.3C58.5 37.2 58.5 37.1 58.6 36.9C58.7 36.8 58.7 36.6 58.8 36.5C58.9 36.2 59.1 35.9 59.2 35.6C59.4 35 59.6 34.4 59.8 33.8C59.8 33.7 59.9 33.6 59.9 33.5C60.1 33.5 60.3 33.4 60.4 33.4H60.5C60.5 33.6 60.6 33.9 60.6 34.1C60.6 34.3 60.6 34.6 60.7 34.8C60.8 35 60.7 35.3 60.7 35.6C60.7 35.9 60.7 36.2 60.7 36.5C60.7 36.8 60.7 37.1 60.7 37.4C60.7 37.7 60.7 38 60.6 38.3C60.5 38.6 60.5 38.9 60.5 39.2C60.5 39.5 60.4 39.8 60.4 40C60.4 40.2 60.3 40.5 60.2 40.7C60.2 40.9 60.1 41.1 60.1 41.3L60 41.8L59.9 42.2L60.3 41.4C60.4 41.2 60.5 41 60.6 40.8C60.7 40.6 60.8 40.3 60.9 40.1C61 39.9 61.1 39.6 61.2 39.3C61.3 39 61.4 38.7 61.5 38.4C61.6 38.1 61.7 37.8 61.8 37.5C61.9 37.2 62 36.9 62 36.6C62 36.3 62.1 36 62.2 35.7C62.3 35.4 62.3 35.1 62.3 34.8C62.3 34.5 62.4 34.3 62.4 34C62.5 33.5 62.5 33.1 62.5 32.8C62.5 32.7 62.5 32.5 62.5 32.4C63 32.1 63.4 31.8 63.9 31.5C64.2 31.3 64.4 31.1 64.7 30.9H65.1L66.1 30.8C66.5 30.8 66.8 30.7 67.2 30.6C67.6 30.5 68 30.4 68.4 30.4L69.6 30.1C70 30 70.4 29.9 70.8 29.7C71.2 29.5 71.6 29.5 71.9 29.3L72.2 29.2C71.9 29.4 71.7 29.5 71.4 29.7C71.1 29.9 70.8 30 70.5 30.2C70.2 30.4 69.9 30.5 69.6 30.6C69.3 30.7 69 30.9 68.7 31C68.4 31.1 68.1 31.2 67.8 31.3L67 31.6L66.6 31.7L66.3 31.8L65.3 32H67.1L68.9 31.8C69.2 31.8 69.6 31.7 69.9 31.6C70.2 31.5 70.6 31.5 70.9 31.4C71.2 31.3 71.6 31.2 72 31.1C72.4 31 72.7 30.9 73 30.8L73.5 30.6L73.7 30.5V30.6C73.6 31.6 72.8 32.6 73.3 33.7C74 35.3 72.8 37.3 73.4 39.2C73.7 40.3 73.9 40.8 74 41.1L72.4 41.9C72 42.1 71.5 42.4 71 42.6L70.3 42.9L69.5 43.3L68.4 43.7C68.2 42.3 68 41.4 66.5 41.9C65.1 42.4 65.9 43.7 66.3 44.4L63.9 45L62.5 45.4C62.3 45.4 62.1 45.5 61.8 45.5L60.6 45.7L59.7 45.8L58.9 45.9H60.6L61.8 45.8L63.2 45.6L65.6 45.3L66.4 45.1L67.2 47.5H66.8L66 47.6C65.5 47.7 65 47.7 64.5 47.7L63 47.8C62.5 47.8 62.1 47.8 61.6 47.8C61.1 47.8 60.7 47.8 60.4 47.8H57.9C58.1 47.9 58.4 47.9 58.6 48C58.8 48 59.1 48.1 59.4 48.2C59.7 48.3 60.1 48.3 60.4 48.3L61 48.4H61.6C62 48.4 62.5 48.4 63 48.5H63.7C63.9 48.5 64.2 48.5 64.5 48.5C65 48.5 65.5 48.5 66.1 48.4L68.5 48.1L70.6 47.5L71.2 47.3C71.4 47.2 71.6 47.2 71.8 47.1L72.1 47C71.7 48.1 71.4 49.2 71.3 50.4C71.3 50.7 71.3 50.9 71.3 51.2L69.9 51.8L68.4 52.5L67 53.2C66.5 53.4 66.1 53.7 65.7 53.9C65.3 54.1 64.9 54.3 64.5 54.5L63.5 55.1C63.2 55.3 63 55.4 62.8 55.6L62.2 56L62.9 55.7L64.7 54.8C65.1 54.6 65.5 54.5 65.9 54.3C66.3 54.1 66.8 53.9 67.3 53.8C67.8 53.7 68.2 53.5 68.7 53.3L69 56.2C68.1 56.4 67.1 56.6 66 56.8C64.3 57.7 63.4 57.8 62.4 57.8ZM68.1 47.9L67.7 45.2C68.1 45.1 68.6 44.9 69 44.8C69.3 44.7 69.6 44.6 69.8 44.5L70.6 44.2C71.1 44 71.6 43.8 72.1 43.6L72.8 43.3L73 43.2C72.8 43.6 72.7 44.1 72.5 44.5C72.1 45.5 71.8 46.4 71.5 47.2L69.1 47.6L68.4 47.7L68.1 47.9ZM70.5 56.1L69.4 53.2H69.5L70.7 52.8C71 53.9 71.7 54.8 72.6 55.5C72 55.7 71.3 55.9 70.5 56.1ZM74.4 54.4C73.7 54.1 73.2 53.6 72.8 53L73.5 53.4C73.9 53.6 74.3 53.8 74.7 54C75.1 54.2 75.6 54.4 76.1 54.6C76.6 54.8 77.1 55 77.6 55.2L79.2 55.8C79.5 55.9 79.7 56 80 56.1L80.8 56.3C81.3 56.5 81.9 56.6 82.4 56.8C82.9 57 83.4 57 83.9 57.2L84.6 57.3L85.2 57.4C85.6 57.5 86 57.5 86.3 57.6L87.2 57.7L88 57.8L87.2 57.6L86.3 57.4L85.2 57.1L84.6 56.9L83.9 56.7C83.4 56.6 83 56.4 82.5 56.2C82 56 81.5 55.8 81 55.6L80.2 55.3L78.6 54.5L77.9 54.1C77.4 53.9 76.9 53.6 76.5 53.3C76.1 53 75.6 52.8 75.2 52.5C74.8 52.2 74.4 52 74.1 51.8C73.8 51.6 73.4 51.4 73.2 51.2C73.2 51 73.3 50.6 73.4 50.3C73.5 50 73.5 49.8 73.6 49.5C73.7 49.2 73.7 49 73.8 48.6C73.9 48.2 74 48 74.1 47.7C74.2 47.4 74.3 47.1 74.4 46.8C74.5 46.5 74.6 46.2 74.8 45.9L75.2 45L75.6 44.2C75.7 43.9 75.8 43.7 76 43.5C76.2 43.3 76.2 43.1 76.3 42.9L76.5 42.4L76.7 42L76.1 42.8C76 42.9 75.8 43.1 75.7 43.3C75.6 43.5 75.4 43.7 75.2 43.9L74.7 44.6L74.2 45.4L74.1 45.5L75.1 43C75.5 41.9 75.8 41.2 76 40.6L76.8 41L77.9 41.5L79.2 42.1L80.7 42.7C81.2 42.9 81.7 43.1 82.3 43.3L84 43.9C85.1 44.3 86.2 44.8 87.3 45.1C88.4 45.4 89.3 45.8 90.2 46.1C91.9 46.7 93 47 93 47C93 47 91.9 46.6 90.3 45.8L87.6 44.5C86.6 44 85.5 43.5 84.5 43C84 42.7 83.4 42.5 82.9 42.2C82.4 41.9 81.9 41.7 81.4 41.4L81.2 41.3C78.6 39.6 76.7 37.1 75.9 34.1C75.3 32.1 74.7 28.4 75.2 20.2C75.2 20.1 75.2 20 75.3 19.9C75.3 19.8 75.3 19.7 75.3 19.6C75.3 19.5 75.4 19.4 75.4 19.3L75.5 19L75.6 18.6C75.7 18.4 75.8 18.1 75.9 17.9C76 17.6 76.2 17.4 76.3 17.2C76.5 16.9 76.6 16.7 76.8 16.5C77 16.3 77.2 16.1 77.4 15.9C77.6 15.7 77.8 15.5 78.1 15.4C78.3 15.3 78.6 15.1 78.8 15C79 14.9 79.3 14.9 79.5 14.9C79.7 14.9 79.9 14.9 80.1 14.9C80.3 14.9 80.4 14.9 80.6 15L80.9 15.1H81L80.9 15L80.6 14.8C80.4 14.7 80.3 14.6 80.1 14.6C79.9 14.5 79.7 14.5 79.4 14.4C79.1 14.4 78.8 14.4 78.5 14.4C77.9 14.4 77.4 14.6 76.9 14.8C77.2 14.5 77.5 14.3 77.8 14.1L78.1 14C78.5 13.9 79 13.8 79.4 13.7H79.6C80.1 13.7 80.6 13.9 81.1 14.1C81.4 14.3 81.7 14.5 81.9 14.8C82.2 15.1 82.4 15.5 82.5 15.9C82.7 16.4 82.8 16.8 82.9 17.3C83 17.8 83.1 18.3 83.1 18.9C83.1 19.4 83.1 19.9 83.1 20.5C83.1 21 83 21.5 82.9 22C82.8 22.5 82.7 23 82.5 23.4C82.3 23.8 82.2 24.3 82.1 24.6C82 24.9 81.8 25.3 81.7 25.6C81.6 25.9 81.5 26.2 81.3 26.4C81.1 26.6 81.1 26.8 81.1 26.9C81.2 26.8 81.3 26.6 81.4 26.4C81.5 26.2 81.7 25.9 81.8 25.6C81.9 25.3 82.1 25 82.3 24.6C82.5 24.2 82.7 23.8 82.8 23.4C83 22.9 83.2 22.5 83.3 22C83.5 21.5 83.6 21 83.7 20.4C83.7 20.3 83.7 20.1 83.7 20V19.6C83.7 19.3 83.7 19 83.7 18.8C83.7 18.2 83.7 17.7 83.7 17.1C83.7 16.5 83.6 16 83.4 15.5C83.3 15 83 14.5 82.8 14C82.5 13.5 82.2 13.1 81.8 12.8C81.4 12.5 81 12.3 80.6 12.1H80.9C81.1 12.2 81.4 12.2 81.6 12.3C81.9 12.4 82.1 12.6 82.3 12.7C82.7 13 83 13.4 83.2 13.8C83.3 13.9 83.4 14.1 83.4 14.3C83.5 14.5 83.5 14.6 83.6 14.8L83.7 15C83.7 15.1 83.7 15.2 83.8 15.2C83.8 15.4 83.9 15.5 83.9 15.7C83.9 15.9 84 16 84 16.2L84.1 16.7V17.2C84.1 17.4 84.1 17.5 84.1 17.7C84.1 17.8 84.1 18 84.1 18.1C84.1 18.2 84.1 18.6 84.1 18.9C84.1 19.2 84.1 19.3 84.1 19.5V20L84.2 19.5C84.2 19.3 84.3 19.1 84.3 18.9C84.3 18.7 84.4 18.4 84.4 18.1V17.7C84.4 17.6 84.4 17.4 84.4 17.2V16.2C84.4 16 84.4 15.8 84.4 15.7C84.4 15.6 84.4 15.3 84.4 15.1C84.4 15 84.4 14.9 84.4 14.8V14.5C84.4 14.3 84.3 14.1 84.3 13.9C84.3 13.7 84.2 13.5 84.1 13.3C84 13.1 83.9 12.9 83.9 12.8C83.7 12.4 83.5 12.1 83.2 11.8C82.9 11.5 82.6 11.3 82.3 11C82 10.8 81.7 10.6 81.4 10.5C81.1 10.4 80.9 10.3 80.6 10.3C80.7 10.1 80.8 9.99999 80.9 9.79999C81.2 9.39999 81.5 9.09999 81.9 8.89999C82.1 8.79999 82.4 8.6 82.6 8.5C82.9 8.4 83.1 8.30001 83.4 8.20001C84 8.00001 84.7 7.89999 85.3 7.89999C85.6 7.89999 86 7.89999 86.3 7.89999H87.3C88 7.89999 88.7 8 89.4 8L90.4 8.20001L91.4 8.29999L92.4 8.5C92.7 8.5 93 8.60001 93.3 8.70001C93.9 8.80001 94.5 8.90001 95 9.10001L96.4 9.39999L97.5 9.70001L98.4 9.89999L97.5 9.60001L96.5 9.20001L95.3 8.70001C94.8 8.50001 94.3 8.40001 93.7 8.20001C93.4 8.10001 93.1 7.99999 92.8 7.89999L91.8 7.60001L89.8 7.20001C89.1 7.10001 88.4 6.89999 87.7 6.79999L86.6 6.70001H85.5C85.1 6.70001 84.6 6.70001 84.2 6.70001C84.9 6.60001 85.5 6.60001 86.2 6.60001C89.1 6.70001 92 7.09999 94.7 7.79999C109.4 11.2 108.8 20.6 103.8 33C99.8 43 93.4 45.6 90.2 54.9C89.3 57.4 88.4 58.3 87.1 58.3C86 58.2 84.9 57.9 83.9 57.5C80.7 57.3 77.5 56 74.4 54.4ZM77.3 12.9L77 13C76.6 12.5 76.2 12 75.8 11.5C75.2 11 74.6 10.5 73.9 10.1C73.3 9.70001 72.6 9.40001 71.9 9.20001C71.3 9.00001 70.7 8.80001 70 8.60001L69.2 8.39999L68.4 8.29999L67.7 8.20001H67.1C66.8 8.20001 66.5 8.20001 66.3 8.20001H66L66.3 8.29999C66.5 8.29999 66.7 8.4 67.1 8.5L67.7 8.60001L68.3 8.79999C68.8 8.89999 69.3 9.09999 69.8 9.29999C70.4 9.49999 71 9.7 71.5 10C72.1 10.3 72.7 10.6 73.3 11C73.9 11.4 74.4 11.9 74.9 12.4C75.3 12.8 75.6 13.3 75.9 13.8C75.2 14.3 74.5 14.9 74 15.6C72 18.2 71.7 21.4 71.9 24.7L71.7 24.8C71.6 24.9 71.4 25 71.3 25C71 25.1 70.7 25.2 70.4 25.3C70.1 25.4 69.8 25.5 69.5 25.5C69.2 25.6 68.9 25.6 68.6 25.6H67.8C67.3 25.6 66.9 25.6 66.7 25.6C66.6 25.1 66.5 24.6 66.2 24.1L66.1 24C66.1 23.9 66.1 23.9 66.1 23.8C66.1 23.7 66.1 23.6 66 23.5C65.9 23.3 65.8 23 65.7 22.8C65.6 22.5 65.4 22.3 65.2 22L65.1 21.8C65 21.7 65 21.7 64.9 21.6L64.5 21.2C64.2 20.9 63.9 20.7 63.6 20.5L63.1 20.1L62.6 19.8L62 19.6L61.4 19.3L59 18.5L58.5 18.3L57 18C56.9 18 56.7 17.9 56.6 17.9H56.2L55.6 17.8H55L55.5 18L56.1 18.2C56.3 18.3 56.6 18.3 56.9 18.4L57.8 18.7L59.3 19.3L59.6 19.4C59.2 19.3 58.7 19.1 58.3 19C56.9 18.6 55.5 18.4 54 18.2C53.3 18.1 52.5 18.1 51.8 18.2C51.1 18.3 50.3 18.5 49.7 18.9C49.4 19.1 49.1 19.3 48.8 19.5C48 20.1 47.4 21 47 21.9C46.9 22.1 46.8 22.4 46.7 22.6C46.1 14.5 49.2 8.50001 59.9 7.20001C61.3 7.00001 62.7 6.89999 64.1 6.89999C71.2 6.89999 75.6 9.39999 77.3 12.9Z" fill="#6E3233"/>
<path d="M89.8 47.6C90 47.6 90.3 47.7 90.5 47.7H91.1L90.6 47.5L89.2 47L84.9 45.4L82.6 44.6L81.5 44.2C81.2 44.1 80.8 44 80.5 43.9L78.4 43.2L78.9 43.5C79.1 43.6 79.3 43.7 79.5 43.8C79.7 43.9 80 44.1 80.3 44.2C80.6 44.3 80.9 44.5 81.2 44.7L82.2 45.2C82.6 45.4 82.9 45.5 83.3 45.7C83.7 45.9 84.1 46 84.5 46.2L85.7 46.6C86.1 46.7 86.5 46.8 86.9 47L88 47.3L89 47.5C89.3 47.6 89.6 47.6 89.8 47.6Z" fill="#3D3D3D"/>
<path d="M97.5 43.4C97.8 43.1 98.1 42.7 98.5 42.2C98.9 41.7 99.3 41.2 99.7 40.6C100.1 40 100.6 39.4 101 38.7C101.4 38 101.9 37.2 102.3 36.4C102.7 35.6 103.1 34.7 103.4 33.9C103.7 33.1 104.1 32.1 104.4 31.2C104.7 30.3 105 29.4 105.3 28.5C105.6 27.6 105.8 26.7 106 25.8C106.2 25 106.3 24.1 106.4 23.2C106.5 22.4 106.5 21.6 106.5 20.9C106.5 20.2 106.4 19.6 106.4 18.9C106.3 18.4 106.2 17.9 106.1 17.4C106.2 17.9 106.3 18.4 106.3 18.9C106.3 19.5 106.3 20.2 106.3 20.8C106.3 21.6 106.2 22.3 106.1 23.1C106 23.9 105.8 24.7 105.6 25.6C105.4 26.5 105.1 27.3 104.8 28.2C104.5 29.1 104.2 30 103.8 30.9C103.4 31.8 103.1 32.7 102.8 33.5C102.5 34.3 102.1 35.2 101.7 36L101.1 37.2C100.9 37.6 100.7 38 100.5 38.3C100.1 39 99.7 39.7 99.3 40.3C98.5 41.5 97.9 42.5 97.4 43.2L96.9 44L97.5 43.4Z" fill="#6E3233"/>
<path d="M74.2 50.6C74.2 50.6 74.2 50.5 74.3 50.3L74.4 50C74.5 49.9 74.5 49.7 74.6 49.6C74.7 49.5 74.7 49.3 74.8 49.1L75 48.6L75.8 46.2L76.2 45.2L76.5 44.5L76.6 44.2L76.4 44.4C76.3 44.5 76.1 44.8 75.9 45C75.7 45.2 75.5 45.6 75.3 46C75.2 46.2 75.1 46.4 75 46.6C74.9 46.8 74.8 47 74.7 47.2C74.6 47.4 74.5 47.6 74.5 47.8C74.5 48 74.4 48.2 74.3 48.4L74.1 49C74.1 49.2 74 49.4 74 49.5C74 49.6 73.9 49.8 73.9 50C73.9 50.2 73.9 50.3 73.9 50.4C73.9 50.5 74.2 50.6 74.2 50.6Z" fill="#3D3D3D"/>
<path d="M145 41H11V54H145V41Z" fill="white"/>
<path d="M16.0858 51.0902V42.0502H21.5062V43.0213H17.1805V46.0758H21.1002V47.0469H17.1805V51.0902H16.0858Z" fill="#6E3233"/>
<path d="M24.4758 42.0502V51.0902H23.3811V42.0502H24.4758Z" fill="#6E3233"/>
<path d="M33.2455 44.8752C33.1484 44.578 33.0204 44.3117 32.8615 44.0763C32.7055 43.8379 32.5186 43.6349 32.3009 43.4671C32.086 43.2994 31.8418 43.1714 31.5681 43.0831C31.2945 42.9948 30.9943 42.9507 30.6677 42.9507C30.1321 42.9507 29.6451 43.089 29.2066 43.3656C28.7681 43.6422 28.4194 44.0498 28.1605 44.5883C27.9015 45.1268 27.772 45.7874 27.772 46.5702C27.772 47.353 27.903 48.0136 28.1649 48.5521C28.4268 49.0906 28.7814 49.4982 29.2287 49.7748C29.676 50.0514 30.1792 50.1897 30.7383 50.1897C31.2562 50.1897 31.7123 50.0794 32.1066 49.8587C32.5039 49.635 32.8129 49.3202 33.0336 48.9141C33.2572 48.505 33.3691 48.0239 33.3691 47.4707L33.7045 47.5413H30.9855V46.5702H34.4284V47.5413C34.4284 48.2858 34.2695 48.9332 33.9517 49.4835C33.6369 50.0338 33.2013 50.4605 32.6452 50.7636C32.0919 51.0637 31.4563 51.2138 30.7383 51.2138C29.9379 51.2138 29.2346 51.0255 28.6284 50.6488C28.0251 50.2721 27.5543 49.7366 27.2159 49.0421C26.8804 48.3476 26.7127 47.5236 26.7127 46.5702C26.7127 45.8551 26.8083 45.2122 26.9996 44.6413C27.1938 44.0674 27.4675 43.5789 27.8206 43.1758C28.1737 42.7726 28.5916 42.4637 29.0742 42.2488C29.5568 42.034 30.0879 41.9266 30.6677 41.9266C31.1444 41.9266 31.5887 41.9987 32.0007 42.1429C32.4156 42.2842 32.7849 42.4857 33.1086 42.7476C33.4353 43.0066 33.7075 43.317 33.9252 43.679C34.143 44.038 34.2931 44.4367 34.3755 44.8752H33.2455Z" fill="#6E3233"/>
<path d="M36.3558 51.0902V42.0502H37.4505V46.0758H42.2706V42.0502H43.3653V51.0902H42.2706V47.0469H37.4505V51.0902H36.3558Z" fill="#6E3233"/>
<path d="M45.0625 43.0213V42.0502H51.8425V43.0213H48.9999V51.0902H47.9052V43.0213H45.0625Z" fill="#6E3233"/>
<path d="M60.7005 42.0502V51.0902H59.6411L54.715 43.9924H54.6267V51.0902H53.532V42.0502H54.5914L59.5351 49.1657H59.6234V42.0502H60.7005Z" fill="#6E3233"/>
<path d="M63.9856 42.0502V51.0902H62.8909V42.0502H63.9856Z" fill="#6E3233"/>
<path d="M72.2355 44.8752C72.1384 44.578 72.0104 44.3117 71.8515 44.0763C71.6955 43.8379 71.5086 43.6349 71.2909 43.4671C71.0761 43.2994 70.8318 43.1714 70.5581 43.0831C70.2845 42.9948 69.9843 42.9507 69.6577 42.9507C69.1221 42.9507 68.6351 43.089 68.1966 43.3656C67.7582 43.6422 67.4094 44.0498 67.1505 44.5883C66.8915 45.1268 66.762 45.7874 66.762 46.5702C66.762 47.353 66.893 48.0136 67.1549 48.5521C67.4168 49.0906 67.7714 49.4982 68.2187 49.7748C68.666 50.0514 69.1692 50.1897 69.7283 50.1897C70.2462 50.1897 70.7023 50.0794 71.0966 49.8587C71.4939 49.635 71.8029 49.3202 72.0236 48.9141C72.2473 48.505 72.3591 48.0239 72.3591 47.4707L72.6945 47.5413H69.9755V46.5702H73.4184V47.5413C73.4184 48.2858 73.2595 48.9332 72.9417 49.4835C72.6269 50.0338 72.1913 50.4605 71.6352 50.7636C71.0819 51.0637 70.4463 51.2138 69.7283 51.2138C68.9279 51.2138 68.2246 51.0255 67.6184 50.6488C67.0151 50.2721 66.5443 49.7366 66.2059 49.0421C65.8704 48.3476 65.7027 47.5236 65.7027 46.5702C65.7027 45.8551 65.7983 45.2122 65.9896 44.6413C66.1838 44.0674 66.4575 43.5789 66.8106 43.1758C67.1637 42.7726 67.5816 42.4637 68.0642 42.2488C68.5468 42.034 69.078 41.9266 69.6577 41.9266C70.1344 41.9266 70.5787 41.9987 70.9907 42.1429C71.4056 42.2842 71.775 42.4857 72.0986 42.7476C72.4253 43.0066 72.6975 43.317 72.9152 43.679C73.133 44.038 73.2831 44.4367 73.3655 44.8752H72.2355Z" fill="#6E3233"/>
<path d="M75.3458 51.0902V42.0502H76.4405V46.0758H81.2606V42.0502H82.3553V51.0902H81.2606V47.0469H76.4405V51.0902H75.3458Z" fill="#6E3233"/>
<path d="M84.0525 43.0213V42.0502H90.8325V43.0213H87.9899V51.0902H86.8952V43.0213H84.0525Z" fill="#6E3233"/>
<path d="M97.7695 44.3102C97.7166 43.8629 97.5017 43.5157 97.1251 43.2685C96.7484 43.0213 96.2864 42.8977 95.7391 42.8977C95.3389 42.8977 94.9887 42.9624 94.6885 43.0919C94.3913 43.2214 94.1588 43.3994 93.9911 43.626C93.8263 43.8526 93.7439 44.1101 93.7439 44.3985C93.7439 44.6398 93.8013 44.8473 93.9161 45.0209C94.0338 45.1916 94.1838 45.3343 94.3663 45.449C94.5487 45.5609 94.74 45.6536 94.9401 45.7271C95.1402 45.7977 95.3241 45.8551 95.4919 45.8993L96.41 46.1465C96.6454 46.2083 96.9073 46.2936 97.1957 46.4025C97.487 46.5114 97.7651 46.66 98.03 46.8483C98.2977 47.0337 98.5184 47.272 98.6921 47.5634C98.8657 47.8547 98.9525 48.2122 98.9525 48.636C98.9525 49.1245 98.8245 49.5659 98.5685 49.9602C98.3154 50.3545 97.9446 50.6679 97.4561 50.9004C96.9706 51.1329 96.3806 51.2491 95.6861 51.2491C95.0387 51.2491 94.4781 51.1447 94.0043 50.9357C93.5335 50.7268 93.1627 50.4355 92.892 50.0617C92.6242 49.688 92.4727 49.254 92.4373 48.7596H93.5673C93.5968 49.1009 93.7115 49.3834 93.9116 49.6071C94.1147 49.8278 94.3707 49.9926 94.6797 50.1015C94.9916 50.2074 95.3271 50.2604 95.6861 50.2604C96.104 50.2604 96.4792 50.1927 96.8117 50.0573C97.1442 49.919 97.4076 49.7277 97.6018 49.4835C97.796 49.2363 97.8931 48.9479 97.8931 48.6183C97.8931 48.3182 97.8093 48.0739 97.6415 47.8856C97.4738 47.6973 97.2531 47.5442 96.9794 47.4265C96.7057 47.3088 96.41 47.2058 96.0922 47.1176L94.9798 46.7997C94.2736 46.5967 93.7145 46.3068 93.3025 45.9302C92.8905 45.5535 92.6845 45.0606 92.6845 44.4515C92.6845 43.9453 92.8214 43.5039 93.095 43.1272C93.3717 42.7476 93.7424 42.4534 94.2074 42.2444C94.6753 42.0326 95.1976 41.9266 95.7744 41.9266C96.357 41.9266 96.8749 42.0311 97.3281 42.24C97.7813 42.446 98.1403 42.7285 98.4052 43.0875C98.6729 43.4465 98.8142 43.8541 98.8289 44.3102H97.7695Z" fill="#6E3233"/>
<path d="M108.027 44.8752H106.932C106.867 44.5603 106.754 44.2837 106.592 44.0454C106.433 43.807 106.239 43.6069 106.009 43.4451C105.783 43.2803 105.531 43.1567 105.255 43.0743C104.978 42.9919 104.69 42.9507 104.39 42.9507C103.842 42.9507 103.346 43.089 102.902 43.3656C102.461 43.6422 102.109 44.0498 101.847 44.5883C101.588 45.1268 101.459 45.7874 101.459 46.5702C101.459 47.353 101.588 48.0136 101.847 48.5521C102.109 49.0906 102.461 49.4982 102.902 49.7748C103.346 50.0514 103.842 50.1897 104.39 50.1897C104.69 50.1897 104.978 50.1485 105.255 50.0661C105.531 49.9838 105.783 49.8616 106.009 49.6998C106.239 49.535 106.433 49.3334 106.592 49.0951C106.754 48.8538 106.867 48.5771 106.932 48.2652H108.027C107.944 48.7272 107.794 49.1407 107.576 49.5056C107.359 49.8705 107.088 50.1809 106.764 50.4369C106.441 50.69 106.077 50.8827 105.674 51.0152C105.274 51.1476 104.846 51.2138 104.39 51.2138C103.619 51.2138 102.933 51.0255 102.333 50.6488C101.732 50.2721 101.26 49.7366 100.916 49.0421C100.571 48.3476 100.399 47.5236 100.399 46.5702C100.399 45.6168 100.571 44.7928 100.916 44.0983C101.26 43.4039 101.732 42.8683 102.333 42.4916C102.933 42.1149 103.619 41.9266 104.39 41.9266C104.846 41.9266 105.274 41.9928 105.674 42.1252C106.077 42.2577 106.441 42.4519 106.764 42.7079C107.088 42.961 107.359 43.27 107.576 43.6349C107.794 43.9968 107.944 44.4103 108.027 44.8752Z" fill="#6E3233"/>
<path d="M117.423 46.5702C117.423 47.5236 117.251 48.3476 116.907 49.0421C116.562 49.7366 116.09 50.2721 115.49 50.6488C114.889 51.0255 114.204 51.2138 113.433 51.2138C112.662 51.2138 111.976 51.0255 111.376 50.6488C110.776 50.2721 110.303 49.7366 109.959 49.0421C109.615 48.3476 109.443 47.5236 109.443 46.5702C109.443 45.6168 109.615 44.7928 109.959 44.0983C110.303 43.4039 110.776 42.8683 111.376 42.4916C111.976 42.1149 112.662 41.9266 113.433 41.9266C114.204 41.9266 114.889 42.1149 115.49 42.4916C116.09 42.8683 116.562 43.4039 116.907 44.0983C117.251 44.7928 117.423 45.6168 117.423 46.5702ZM116.364 46.5702C116.364 45.7874 116.233 45.1268 115.971 44.5883C115.712 44.0498 115.36 43.6422 114.916 43.3656C114.475 43.089 113.98 42.9507 113.433 42.9507C112.885 42.9507 112.39 43.089 111.945 43.3656C111.504 43.6422 111.152 44.0498 110.89 44.5883C110.631 45.1268 110.502 45.7874 110.502 46.5702C110.502 47.353 110.631 48.0136 110.89 48.5521C111.152 49.0906 111.504 49.4982 111.945 49.7748C112.39 50.0514 112.885 50.1897 113.433 50.1897C113.98 50.1897 114.475 50.0514 114.916 49.7748C115.36 49.4982 115.712 49.0906 115.971 48.5521C116.233 48.0136 116.364 47.353 116.364 46.5702Z" fill="#6E3233"/>
<path d="M119.264 51.0902V42.0502H122.318C123.025 42.0502 123.604 42.1709 124.057 42.4122C124.511 42.6505 124.846 42.9786 125.064 43.3965C125.282 43.8144 125.391 44.2896 125.391 44.8222C125.391 45.3549 125.282 45.8272 125.064 46.2392C124.846 46.6511 124.512 46.9748 124.062 47.2102C123.612 47.4427 123.036 47.559 122.336 47.559H119.864V46.5702H122.301C122.783 46.5702 123.172 46.4996 123.466 46.3583C123.763 46.2171 123.978 46.017 124.11 45.758C124.246 45.4961 124.313 45.1842 124.313 44.8222C124.313 44.4603 124.246 44.1439 124.11 43.8732C123.975 43.6025 123.759 43.3936 123.462 43.2464C123.164 43.0963 122.772 43.0213 122.283 43.0213H120.358V51.0902H119.264ZM123.519 47.0293L125.744 51.0902H124.472L122.283 47.0293H123.519Z" fill="#6E3233"/>
<path d="M127.215 51.0902V42.0502H132.67V43.0213H128.309V46.0758H132.388V47.0469H128.309V50.1191H132.741V51.0902H127.215Z" fill="#6E3233"/>
<path d="M139.587 44.3102C139.534 43.8629 139.319 43.5157 138.943 43.2685C138.566 43.0213 138.104 42.8977 137.557 42.8977C137.157 42.8977 136.806 42.9624 136.506 43.0919C136.209 43.2214 135.977 43.3994 135.809 43.626C135.644 43.8526 135.562 44.1101 135.562 44.3985C135.562 44.6398 135.619 44.8473 135.734 45.0209C135.851 45.1916 136.002 45.3343 136.184 45.449C136.366 45.5609 136.558 45.6536 136.758 45.7271C136.958 45.7977 137.142 45.8551 137.31 45.8993L138.228 46.1465C138.463 46.2083 138.725 46.2936 139.013 46.4025C139.305 46.5114 139.583 46.66 139.848 46.8483C140.115 47.0337 140.336 47.272 140.51 47.5634C140.683 47.8547 140.77 48.2122 140.77 48.636C140.77 49.1245 140.642 49.5659 140.386 49.9602C140.133 50.3545 139.762 50.6679 139.274 50.9004C138.788 51.1329 138.198 51.2491 137.504 51.2491C136.856 51.2491 136.296 51.1447 135.822 50.9357C135.351 50.7268 134.98 50.4355 134.71 50.0617C134.442 49.688 134.29 49.254 134.255 48.7596H135.385C135.414 49.1009 135.529 49.3834 135.729 49.6071C135.932 49.8278 136.188 49.9926 136.497 50.1015C136.809 50.2074 137.145 50.2604 137.504 50.2604C137.922 50.2604 138.297 50.1927 138.629 50.0573C138.962 49.919 139.225 49.7277 139.42 49.4835C139.614 49.2363 139.711 48.9479 139.711 48.6183C139.711 48.3182 139.627 48.0739 139.459 47.8856C139.292 47.6973 139.071 47.5442 138.797 47.4265C138.523 47.3088 138.228 47.2058 137.91 47.1176L136.798 46.7997C136.091 46.5967 135.532 46.3068 135.12 45.9302C134.708 45.5535 134.502 45.0606 134.502 44.4515C134.502 43.9453 134.639 43.5039 134.913 43.1272C135.189 42.7476 135.56 42.4534 136.025 42.2444C136.493 42.0326 137.015 41.9266 137.592 41.9266C138.175 41.9266 138.693 42.0311 139.146 42.24C139.599 42.446 139.958 42.7285 140.223 43.0875C140.491 43.4465 140.632 43.8541 140.647 44.3102H139.587Z" fill="#6E3233"/>
</svg>